<mxfile host="Electron" agent="Mozilla/5.0 (Windows NT 10.0; Win64; x64) AppleWebKit/537.36 (KHTML, like Gecko) draw.io/28.2.5 Chrome/138.0.7204.251 Electron/37.6.1 Safari/537.36" version="28.2.5">
  <diagram name="Страница — 1" id="XPojqk11kh-hMMRPMYDt">
    <mxGraphModel dx="3258" dy="2582" grid="1" gridSize="10" guides="1" tooltips="1" connect="1" arrows="1" fold="1" page="1" pageScale="1" pageWidth="827" pageHeight="1169" math="0" shadow="0">
      <root>
        <mxCell id="0" />
        <mxCell id="1" parent="0" />
        <mxCell id="FqsGxT_PJn5Uz5HPR8Sm-4" value="&lt;p style=&quot;margin:0px;margin-top:4px;text-align:center;&quot;&gt;&lt;/p&gt;&lt;div style=&quot;text-align: center;&quot;&gt;&lt;font color=&quot;#009900&quot;&gt;&lt;b&gt;Ball&lt;/b&gt;&lt;/font&gt;&lt;/div&gt;&lt;p&gt;&lt;/p&gt;&lt;hr size=&quot;1&quot; style=&quot;border-style:solid;&quot;&gt;&lt;p style=&quot;margin:0px;margin-left:4px;&quot;&gt;&lt;span style=&quot;color: rgb(0, 153, 0); background-color: transparent;&quot;&gt;- radius: double&lt;/span&gt;&lt;/p&gt;&lt;hr size=&quot;1&quot; style=&quot;border-style:solid;&quot;&gt;&lt;p style=&quot;margin: 0px 0px 0px 4px;&quot;&gt;&lt;font style=&quot;color: rgb(0, 153, 0);&quot;&gt;+ getRadius(): double&lt;/font&gt;&lt;/p&gt;&lt;p style=&quot;margin: 0px 0px 0px 4px;&quot;&gt;&lt;font style=&quot;color: rgb(0, 153, 0);&quot;&gt;+ setRadius(): double&lt;/font&gt;&lt;/p&gt;" style="verticalAlign=top;align=left;overflow=fill;html=1;whiteSpace=wrap;strokeColor=#009900;" parent="1" vertex="1">
          <mxGeometry x="-453" y="500" width="120" height="100" as="geometry" />
        </mxCell>
        <mxCell id="FqsGxT_PJn5Uz5HPR8Sm-5" value="&lt;p style=&quot;margin:0px;margin-top:4px;text-align:center;&quot;&gt;&lt;/p&gt;&lt;div style=&quot;text-align: center;&quot;&gt;&lt;b&gt;&lt;font style=&quot;color: rgb(0, 153, 0);&quot;&gt;Vector2&lt;/font&gt;&lt;/b&gt;&lt;/div&gt;&lt;p&gt;&lt;/p&gt;&lt;hr size=&quot;1&quot; style=&quot;border-style:solid;&quot;&gt;&lt;p style=&quot;margin:0px;margin-left:4px;&quot;&gt;&lt;font style=&quot;color: rgb(0, 153, 0);&quot;&gt;- x: double&lt;/font&gt;&lt;/p&gt;&lt;p style=&quot;margin:0px;margin-left:4px;&quot;&gt;&lt;font style=&quot;color: rgb(0, 153, 0);&quot;&gt;- y: double&lt;/font&gt;&lt;/p&gt;&lt;hr size=&quot;1&quot; style=&quot;border-style:solid;&quot;&gt;&lt;p style=&quot;margin:0px;margin-left:4px;&quot;&gt;&lt;font style=&quot;color: rgb(0, 153, 0);&quot;&gt;+ add(other: Vector2): Vector2&lt;br&gt;+ multiply(double: scalar): Vector2&lt;br&gt;+ magnitude(): double&lt;br&gt;+ normalize(): Vector2&lt;br&gt;+ getX(): double&lt;br&gt;+ getY(): double&lt;br&gt;+ setX(x: double)&lt;br&gt;+ setY(y: double)&lt;/font&gt;&lt;/p&gt;" style="verticalAlign=top;align=left;overflow=fill;html=1;whiteSpace=wrap;strokeColor=#009900;" parent="1" vertex="1">
          <mxGeometry x="-420" y="-370" width="195" height="205" as="geometry" />
        </mxCell>
        <mxCell id="FqsGxT_PJn5Uz5HPR8Sm-19" value="&lt;p style=&quot;margin:0px;margin-top:4px;text-align:center;&quot;&gt;&lt;/p&gt;&lt;div style=&quot;text-align: center;&quot;&gt;&lt;font style=&quot;color: rgb(0, 0, 255);&quot;&gt;&lt;span style=&quot;background-color: transparent; text-align: left;&quot;&gt;«abstract&lt;/span&gt;&lt;span style=&quot;background-color: transparent; text-align: left;&quot;&gt;»&lt;/span&gt;&lt;/font&gt;&lt;/div&gt;&lt;div style=&quot;text-align: center;&quot;&gt;&lt;font color=&quot;#0000ff&quot;&gt;&lt;b&gt;MovableEntity&lt;/b&gt;&lt;/font&gt;&lt;/div&gt;&lt;p&gt;&lt;/p&gt;&lt;hr size=&quot;1&quot; style=&quot;border-style:solid;&quot;&gt;&lt;p style=&quot;margin:0px;margin-left:4px;&quot;&gt;&lt;span style=&quot;color: rgb(0, 0, 255); background-color: transparent;&quot;&gt;# velocity: Vector2&lt;/span&gt;&lt;/p&gt;&lt;p style=&quot;margin:0px;margin-left:4px;&quot;&gt;&lt;font style=&quot;color: rgb(0, 0, 255);&quot;&gt;# mass: double&lt;/font&gt;&lt;/p&gt;&lt;hr size=&quot;1&quot; style=&quot;border-style:solid;&quot;&gt;&lt;p style=&quot;margin: 0px 0px 0px 4px;&quot;&gt;&lt;br&gt;&lt;/p&gt;" style="verticalAlign=top;align=left;overflow=fill;html=1;whiteSpace=wrap;strokeColor=#0000FF;" parent="1" vertex="1">
          <mxGeometry x="-381" y="310" width="117" height="110" as="geometry" />
        </mxCell>
        <mxCell id="93EsHyi-fyHFf_x4cWJ--1" value="&lt;p style=&quot;margin:0px;margin-top:4px;text-align:center;&quot;&gt;&lt;/p&gt;&lt;div style=&quot;text-align: center;&quot;&gt;&lt;font color=&quot;#009900&quot;&gt;&lt;b&gt;Paddle&lt;/b&gt;&lt;/font&gt;&lt;/div&gt;&lt;p&gt;&lt;/p&gt;&lt;hr size=&quot;1&quot; style=&quot;border-style:solid;&quot;&gt;&lt;p style=&quot;margin: 0px 0px 0px 4px;&quot;&gt;&lt;span style=&quot;color: rgb(0, 153, 0); background-color: transparent;&quot;&gt;- size: Rectangle&lt;/span&gt;&lt;/p&gt;&lt;hr size=&quot;1&quot; style=&quot;border-style:solid;&quot;&gt;&lt;p style=&quot;margin:0px;margin-left:4px;&quot;&gt;&lt;font color=&quot;#009900&quot;&gt;&lt;br&gt;&lt;/font&gt;&lt;/p&gt;" style="verticalAlign=top;align=left;overflow=fill;html=1;whiteSpace=wrap;strokeColor=#009900;" parent="1" vertex="1">
          <mxGeometry x="-317" y="500" width="100" height="80" as="geometry" />
        </mxCell>
        <mxCell id="93EsHyi-fyHFf_x4cWJ--2" value="&lt;p style=&quot;margin:0px;margin-top:4px;text-align:center;&quot;&gt;&lt;/p&gt;&lt;div style=&quot;text-align: center;&quot;&gt;&lt;font style=&quot;color: rgb(255, 128, 0);&quot;&gt;&lt;span style=&quot;background-color: transparent; text-align: left;&quot;&gt;«enumeration&lt;/span&gt;&lt;span style=&quot;background-color: transparent; text-align: left;&quot;&gt;»&lt;/span&gt;&lt;/font&gt;&lt;/div&gt;&lt;div style=&quot;text-align: center;&quot;&gt;&lt;b style=&quot;background-color: transparent;&quot;&gt;&lt;font style=&quot;color: rgb(255, 128, 0);&quot;&gt;BlockType&lt;/font&gt;&lt;/b&gt;&lt;/div&gt;&lt;p&gt;&lt;/p&gt;&lt;hr size=&quot;1&quot; style=&quot;border-style:solid;&quot;&gt;&lt;p style=&quot;margin:0px;margin-left:4px;&quot;&gt;&lt;font color=&quot;#ff8000&quot;&gt;DISTRUCTIBLE&lt;br&gt;INDESTRUCTIBLE&lt;br&gt;DECORATIVE&lt;/font&gt;&lt;/p&gt;&lt;hr size=&quot;1&quot; style=&quot;border-style:solid;&quot;&gt;&lt;p style=&quot;margin:0px;margin-left:4px;&quot;&gt;&lt;br&gt;&lt;/p&gt;" style="verticalAlign=top;align=left;overflow=fill;html=1;whiteSpace=wrap;strokeColor=#FF8000;" parent="1" vertex="1">
          <mxGeometry x="353" y="480" width="120" height="125" as="geometry" />
        </mxCell>
        <mxCell id="93EsHyi-fyHFf_x4cWJ--4" value="Extends" style="endArrow=block;endSize=16;endFill=0;html=1;rounded=0;" parent="1" source="FqsGxT_PJn5Uz5HPR8Sm-19" target="S4wdt5YliR7kEv1zfu42-8" edge="1">
          <mxGeometry width="160" relative="1" as="geometry">
            <mxPoint x="-480" y="440" as="sourcePoint" />
            <mxPoint x="-193.1333333333332" y="170" as="targetPoint" />
          </mxGeometry>
        </mxCell>
        <mxCell id="93EsHyi-fyHFf_x4cWJ--5" value="Extends" style="endArrow=block;endSize=16;endFill=0;html=1;rounded=0;" parent="1" source="S4wdt5YliR7kEv1zfu42-6" target="S4wdt5YliR7kEv1zfu42-8" edge="1">
          <mxGeometry width="160" relative="1" as="geometry">
            <mxPoint x="-178.92156862745105" y="385" as="sourcePoint" />
            <mxPoint x="-155" y="170" as="targetPoint" />
          </mxGeometry>
        </mxCell>
        <mxCell id="93EsHyi-fyHFf_x4cWJ--7" value="&lt;p style=&quot;margin:0px;margin-top:4px;text-align:center;&quot;&gt;&lt;/p&gt;&lt;div style=&quot;text-align: center;&quot;&gt;&lt;font style=&quot;color: rgb(153, 51, 255);&quot;&gt;&lt;span style=&quot;background-color: transparent; text-align: left;&quot;&gt;«interface&lt;/span&gt;&lt;span style=&quot;background-color: transparent; text-align: left;&quot;&gt;»&lt;/span&gt;&lt;/font&gt;&lt;/div&gt;&lt;div style=&quot;text-align: center;&quot;&gt;&lt;font color=&quot;#9933ff&quot;&gt;&lt;b&gt;Impulsivable&lt;/b&gt;&lt;/font&gt;&lt;/div&gt;&lt;p&gt;&lt;/p&gt;&lt;hr size=&quot;1&quot; style=&quot;border-style:solid;&quot;&gt;&lt;p style=&quot;margin:0px;margin-left:4px;&quot;&gt;&lt;font style=&quot;color: rgb(153, 51, 255);&quot;&gt;&lt;br&gt;&lt;/font&gt;&lt;/p&gt;&lt;hr size=&quot;1&quot; style=&quot;border-style:solid;&quot;&gt;&lt;p style=&quot;margin:0px;margin-left:4px;&quot;&gt;&lt;font style=&quot;color: rgb(153, 51, 255);&quot;&gt;+ getImpulse(): Vector2&lt;br&gt;+ addImpulse(impulse: Vector2)&lt;/font&gt;&lt;/p&gt;&lt;p style=&quot;margin:0px;margin-left:4px;&quot;&gt;&lt;font style=&quot;color: rgb(153, 51, 255);&quot;&gt;&lt;br&gt;&lt;/font&gt;&lt;/p&gt;" style="verticalAlign=top;align=left;overflow=fill;html=1;whiteSpace=wrap;strokeColor=#9933FF;" parent="1" vertex="1">
          <mxGeometry x="-640" y="100" width="190" height="110" as="geometry" />
        </mxCell>
        <mxCell id="S4wdt5YliR7kEv1zfu42-2" value="" style="endArrow=diamondThin;endFill=1;endSize=24;html=1;rounded=0;" edge="1" parent="1" source="93EsHyi-fyHFf_x4cWJ--2" target="S4wdt5YliR7kEv1zfu42-6">
          <mxGeometry width="160" relative="1" as="geometry">
            <mxPoint x="-770" y="610" as="sourcePoint" />
            <mxPoint x="-20" y="465" as="targetPoint" />
          </mxGeometry>
        </mxCell>
        <mxCell id="S4wdt5YliR7kEv1zfu42-3" value="Extends" style="endArrow=block;endSize=16;endFill=0;html=1;rounded=0;" edge="1" parent="1" source="FqsGxT_PJn5Uz5HPR8Sm-19" target="93EsHyi-fyHFf_x4cWJ--7">
          <mxGeometry width="160" relative="1" as="geometry">
            <mxPoint x="-770" y="610" as="sourcePoint" />
            <mxPoint x="-610" y="610" as="targetPoint" />
          </mxGeometry>
        </mxCell>
        <mxCell id="S4wdt5YliR7kEv1zfu42-4" value="Extends" style="endArrow=block;endSize=16;endFill=0;html=1;rounded=0;" edge="1" parent="1" source="FqsGxT_PJn5Uz5HPR8Sm-4" target="FqsGxT_PJn5Uz5HPR8Sm-19">
          <mxGeometry width="160" relative="1" as="geometry">
            <mxPoint x="-770" y="610" as="sourcePoint" />
            <mxPoint x="-610" y="610" as="targetPoint" />
          </mxGeometry>
        </mxCell>
        <mxCell id="S4wdt5YliR7kEv1zfu42-5" value="Extends" style="endArrow=block;endSize=16;endFill=0;html=1;rounded=0;" edge="1" parent="1" source="93EsHyi-fyHFf_x4cWJ--1" target="FqsGxT_PJn5Uz5HPR8Sm-19">
          <mxGeometry width="160" relative="1" as="geometry">
            <mxPoint x="-300" y="785" as="sourcePoint" />
            <mxPoint x="-254" y="680" as="targetPoint" />
          </mxGeometry>
        </mxCell>
        <mxCell id="S4wdt5YliR7kEv1zfu42-6" value="&lt;p style=&quot;margin:0px;margin-top:4px;text-align:center;&quot;&gt;&lt;/p&gt;&lt;div style=&quot;text-align: center;&quot;&gt;&lt;font style=&quot;color: rgb(0, 0, 255);&quot;&gt;&lt;span style=&quot;background-color: transparent; text-align: left;&quot;&gt;«abstract&lt;/span&gt;&lt;span style=&quot;background-color: transparent; text-align: left;&quot;&gt;»&lt;/span&gt;&lt;/font&gt;&lt;/div&gt;&lt;div style=&quot;text-align: center;&quot;&gt;&lt;font style=&quot;color: rgb(0, 0, 255);&quot;&gt;&lt;b&gt;Block&lt;/b&gt;&lt;/font&gt;&lt;/div&gt;&lt;p&gt;&lt;/p&gt;&lt;hr size=&quot;1&quot; style=&quot;border-style:solid;&quot;&gt;&lt;p style=&quot;margin: 0px 0px 0px 4px;&quot;&gt;&lt;font style=&quot;color: rgb(0, 0, 255);&quot;&gt;# size: Rectangle&lt;/font&gt;&lt;/p&gt;&lt;p style=&quot;margin: 0px 0px 0px 4px;&quot;&gt;&lt;font style=&quot;color: rgb(0, 0, 255);&quot;&gt;# type: BlockType&lt;/font&gt;&lt;/p&gt;&lt;hr style=&quot;border-style: solid;&quot; size=&quot;1&quot;&gt;&lt;p style=&quot;margin: 0px 0px 0px 4px;&quot;&gt;&lt;span&gt;&lt;font style=&quot;color: rgb(0, 0, 255);&quot;&gt;+ getType(): BlockType&lt;/font&gt;&lt;/span&gt;&lt;br&gt;&lt;/p&gt;" style="verticalAlign=top;align=left;overflow=fill;html=1;whiteSpace=wrap;strokeColor=#0000FF;" vertex="1" parent="1">
          <mxGeometry x="150" y="480" width="140" height="120" as="geometry" />
        </mxCell>
        <mxCell id="S4wdt5YliR7kEv1zfu42-7" value="&lt;p style=&quot;margin:0px;margin-top:4px;text-align:center;&quot;&gt;&lt;/p&gt;&lt;div style=&quot;text-align: center;&quot;&gt;&lt;font style=&quot;color: rgb(153, 51, 255);&quot;&gt;&lt;span style=&quot;background-color: transparent; text-align: left;&quot;&gt;«interface&lt;/span&gt;&lt;span style=&quot;background-color: transparent; text-align: left;&quot;&gt;»&lt;/span&gt;&lt;/font&gt;&lt;/div&gt;&lt;div style=&quot;text-align: center;&quot;&gt;&lt;font color=&quot;#9933ff&quot;&gt;&lt;b&gt;Positionable&lt;/b&gt;&lt;/font&gt;&lt;/div&gt;&lt;p&gt;&lt;/p&gt;&lt;hr size=&quot;1&quot; style=&quot;border-style:solid;&quot;&gt;&lt;p style=&quot;margin:0px;margin-left:4px;&quot;&gt;&lt;font style=&quot;color: rgb(153, 51, 255);&quot;&gt;&lt;br&gt;&lt;/font&gt;&lt;/p&gt;&lt;hr size=&quot;1&quot; style=&quot;border-style:solid;&quot;&gt;&lt;p style=&quot;margin:0px;margin-left:4px;&quot;&gt;&lt;font style=&quot;color: rgb(153, 51, 255);&quot;&gt;+ getPosition(): Vector2&lt;br&gt;+ setPosition(position: Vector2)&lt;/font&gt;&lt;/p&gt;" style="verticalAlign=top;align=left;overflow=fill;html=1;whiteSpace=wrap;strokeColor=#9933FF;" vertex="1" parent="1">
          <mxGeometry x="-310" y="-90" width="180" height="110" as="geometry" />
        </mxCell>
        <mxCell id="S4wdt5YliR7kEv1zfu42-8" value="&lt;p style=&quot;margin:0px;margin-top:4px;text-align:center;&quot;&gt;&lt;/p&gt;&lt;div style=&quot;text-align: center;&quot;&gt;&lt;font style=&quot;color: rgb(0, 0, 255);&quot;&gt;&lt;span style=&quot;background-color: transparent; text-align: left;&quot;&gt;«abstract&lt;/span&gt;&lt;span style=&quot;background-color: transparent; text-align: left;&quot;&gt;»&lt;/span&gt;&lt;/font&gt;&lt;/div&gt;&lt;div style=&quot;text-align: center;&quot;&gt;&lt;font color=&quot;#0000ff&quot;&gt;&lt;b&gt;PositionableEntity&lt;/b&gt;&lt;/font&gt;&lt;/div&gt;&lt;p&gt;&lt;/p&gt;&lt;hr size=&quot;1&quot; style=&quot;border-style:solid;&quot;&gt;&lt;p style=&quot;margin:0px;margin-left:4px;&quot;&gt;&lt;font style=&quot;color: rgb(0, 0, 255);&quot;&gt;# position: Vector2&lt;br&gt;&lt;/font&gt;&lt;/p&gt;&lt;hr size=&quot;1&quot; style=&quot;border-style:solid;&quot;&gt;&lt;p style=&quot;margin:0px;margin-left:4px;&quot;&gt;&lt;br&gt;&lt;/p&gt;" style="verticalAlign=top;align=left;overflow=fill;html=1;whiteSpace=wrap;strokeColor=#0000FF;" vertex="1" parent="1">
          <mxGeometry x="-145" y="112.5" width="160" height="97.5" as="geometry" />
        </mxCell>
        <mxCell id="S4wdt5YliR7kEv1zfu42-9" value="&lt;p style=&quot;margin:0px;margin-top:4px;text-align:center;&quot;&gt;&lt;/p&gt;&lt;div style=&quot;text-align: center;&quot;&gt;&lt;font style=&quot;color: rgb(0, 0, 255);&quot;&gt;&lt;span style=&quot;background-color: transparent; text-align: left;&quot;&gt;«abstract&lt;/span&gt;&lt;span style=&quot;background-color: transparent; text-align: left;&quot;&gt;»&lt;/span&gt;&lt;/font&gt;&lt;/div&gt;&lt;div style=&quot;text-align: center;&quot;&gt;&lt;font color=&quot;#0000ff&quot;&gt;&lt;b&gt;Entity&lt;/b&gt;&lt;/font&gt;&lt;/div&gt;&lt;p&gt;&lt;/p&gt;&lt;hr size=&quot;1&quot; style=&quot;border-style:solid;&quot;&gt;&lt;p style=&quot;margin:0px;margin-left:4px;&quot;&gt;&lt;font style=&quot;color: rgb(0, 0, 255);&quot;&gt;- id: String&lt;br&gt;&lt;/font&gt;&lt;/p&gt;&lt;hr size=&quot;1&quot; style=&quot;border-style:solid;&quot;&gt;&lt;p style=&quot;margin:0px;margin-left:4px;&quot;&gt;&lt;br&gt;&lt;/p&gt;" style="verticalAlign=top;align=left;overflow=fill;html=1;whiteSpace=wrap;strokeColor=#0000FF;" vertex="1" parent="1">
          <mxGeometry x="10" y="-80" width="80" height="90" as="geometry" />
        </mxCell>
        <mxCell id="S4wdt5YliR7kEv1zfu42-10" value="&lt;p style=&quot;margin:0px;margin-top:4px;text-align:center;&quot;&gt;&lt;/p&gt;&lt;div style=&quot;text-align: center;&quot;&gt;&lt;font style=&quot;color: rgb(153, 51, 255);&quot;&gt;&lt;span style=&quot;background-color: transparent; text-align: left;&quot;&gt;«interface&lt;/span&gt;&lt;span style=&quot;background-color: transparent; text-align: left;&quot;&gt;»&lt;/span&gt;&lt;/font&gt;&lt;/div&gt;&lt;div style=&quot;text-align: center;&quot;&gt;&lt;font color=&quot;#9933ff&quot;&gt;&lt;b&gt;Identificationable&lt;/b&gt;&lt;/font&gt;&lt;/div&gt;&lt;p&gt;&lt;/p&gt;&lt;hr size=&quot;1&quot; style=&quot;border-style:solid;&quot;&gt;&lt;p style=&quot;margin:0px;margin-left:4px;&quot;&gt;&lt;font style=&quot;color: rgb(153, 51, 255);&quot;&gt;&lt;br&gt;&lt;/font&gt;&lt;/p&gt;&lt;hr size=&quot;1&quot; style=&quot;border-style:solid;&quot;&gt;&lt;p style=&quot;margin:0px;margin-left:4px;&quot;&gt;&lt;font style=&quot;color: rgb(153, 51, 255);&quot;&gt;+ getId(): String&lt;/font&gt;&lt;/p&gt;" style="verticalAlign=top;align=left;overflow=fill;html=1;whiteSpace=wrap;strokeColor=#9933FF;" vertex="1" parent="1">
          <mxGeometry x="-5" y="-265" width="110" height="100" as="geometry" />
        </mxCell>
        <mxCell id="S4wdt5YliR7kEv1zfu42-11" value="Extends" style="endArrow=block;endSize=16;endFill=0;html=1;rounded=0;" edge="1" parent="1" source="S4wdt5YliR7kEv1zfu42-9" target="S4wdt5YliR7kEv1zfu42-10">
          <mxGeometry width="160" relative="1" as="geometry">
            <mxPoint x="-120" y="435" as="sourcePoint" />
            <mxPoint x="-120" y="220" as="targetPoint" />
          </mxGeometry>
        </mxCell>
        <mxCell id="S4wdt5YliR7kEv1zfu42-13" value="Extends" style="endArrow=block;endSize=16;endFill=0;html=1;rounded=0;" edge="1" parent="1" source="S4wdt5YliR7kEv1zfu42-8" target="S4wdt5YliR7kEv1zfu42-7">
          <mxGeometry width="160" relative="1" as="geometry">
            <mxPoint x="-240" y="-10" as="sourcePoint" />
            <mxPoint x="-240" y="-70" as="targetPoint" />
          </mxGeometry>
        </mxCell>
        <mxCell id="S4wdt5YliR7kEv1zfu42-14" value="Extends" style="endArrow=block;endSize=16;endFill=0;html=1;rounded=0;" edge="1" parent="1" source="S4wdt5YliR7kEv1zfu42-8" target="S4wdt5YliR7kEv1zfu42-9">
          <mxGeometry width="160" relative="1" as="geometry">
            <mxPoint x="-246" y="60" as="sourcePoint" />
            <mxPoint x="-310" y="-70" as="targetPoint" />
          </mxGeometry>
        </mxCell>
        <mxCell id="S4wdt5YliR7kEv1zfu42-15" value="&lt;p style=&quot;margin:0px;margin-top:4px;text-align:center;&quot;&gt;&lt;/p&gt;&lt;div style=&quot;text-align: center;&quot;&gt;&lt;font style=&quot;color: rgb(153, 51, 255);&quot;&gt;&lt;span style=&quot;background-color: transparent; text-align: left;&quot;&gt;«interface&lt;/span&gt;&lt;span style=&quot;background-color: transparent; text-align: left;&quot;&gt;»&lt;/span&gt;&lt;/font&gt;&lt;/div&gt;&lt;div style=&quot;text-align: center;&quot;&gt;&lt;font color=&quot;#9933ff&quot;&gt;&lt;b&gt;Measurable&lt;/b&gt;&lt;/font&gt;&lt;/div&gt;&lt;p&gt;&lt;/p&gt;&lt;hr size=&quot;1&quot; style=&quot;border-style:solid;&quot;&gt;&lt;p style=&quot;margin:0px;margin-left:4px;&quot;&gt;&lt;font style=&quot;color: rgb(153, 51, 255);&quot;&gt;&lt;br&gt;&lt;/font&gt;&lt;/p&gt;&lt;hr size=&quot;1&quot; style=&quot;border-style:solid;&quot;&gt;&lt;p style=&quot;margin:0px;margin-left:4px;&quot;&gt;&lt;font style=&quot;color: rgb(153, 51, 255);&quot;&gt;+ getSize(): Rectangle&lt;br&gt;+ setSize(size: Rectangle)&lt;/font&gt;&lt;/p&gt;" style="verticalAlign=top;align=left;overflow=fill;html=1;whiteSpace=wrap;strokeColor=#9933FF;" vertex="1" parent="1">
          <mxGeometry x="-145" y="300" width="160" height="110" as="geometry" />
        </mxCell>
        <mxCell id="S4wdt5YliR7kEv1zfu42-17" value="&lt;p style=&quot;margin:0px;margin-top:4px;text-align:center;&quot;&gt;&lt;/p&gt;&lt;div style=&quot;text-align: center;&quot;&gt;&lt;font style=&quot;color: rgb(153, 51, 255);&quot;&gt;&lt;span style=&quot;background-color: transparent; text-align: left;&quot;&gt;«interface&lt;/span&gt;&lt;span style=&quot;background-color: transparent; text-align: left;&quot;&gt;»&lt;/span&gt;&lt;/font&gt;&lt;/div&gt;&lt;div style=&quot;text-align: center;&quot;&gt;&lt;font color=&quot;#9933ff&quot;&gt;&lt;b&gt;Massable&lt;/b&gt;&lt;/font&gt;&lt;/div&gt;&lt;p&gt;&lt;/p&gt;&lt;hr size=&quot;1&quot; style=&quot;border-style:solid;&quot;&gt;&lt;p style=&quot;margin:0px;margin-left:4px;&quot;&gt;&lt;font style=&quot;color: rgb(153, 51, 255);&quot;&gt;&lt;br&gt;&lt;/font&gt;&lt;/p&gt;&lt;hr size=&quot;1&quot; style=&quot;border-style:solid;&quot;&gt;&lt;p style=&quot;margin:0px;margin-left:4px;&quot;&gt;&lt;span style=&quot;color: rgb(153, 51, 255); background-color: transparent;&quot;&gt;+ getMass(): double&lt;/span&gt;&lt;/p&gt;&lt;p style=&quot;margin:0px;margin-left:4px;&quot;&gt;&lt;font style=&quot;color: rgb(153, 51, 255);&quot;&gt;+ setMass(mass: double)&lt;br&gt;&lt;/font&gt;&lt;/p&gt;" style="verticalAlign=top;align=left;overflow=fill;html=1;whiteSpace=wrap;strokeColor=#9933FF;" vertex="1" parent="1">
          <mxGeometry x="-720" y="-90" width="150" height="110" as="geometry" />
        </mxCell>
        <mxCell id="S4wdt5YliR7kEv1zfu42-18" value="Extends" style="endArrow=block;endSize=16;endFill=0;html=1;rounded=0;" edge="1" parent="1" source="93EsHyi-fyHFf_x4cWJ--7" target="S4wdt5YliR7kEv1zfu42-17">
          <mxGeometry width="160" relative="1" as="geometry">
            <mxPoint x="-128" y="122" as="sourcePoint" />
            <mxPoint x="-250" y="40" as="targetPoint" />
          </mxGeometry>
        </mxCell>
        <mxCell id="S4wdt5YliR7kEv1zfu42-19" value="&lt;p style=&quot;margin:0px;margin-top:4px;text-align:center;&quot;&gt;&lt;/p&gt;&lt;div style=&quot;text-align: center;&quot;&gt;&lt;b&gt;&lt;font style=&quot;color: rgb(0, 153, 0);&quot;&gt;Rectangle&lt;/font&gt;&lt;/b&gt;&lt;/div&gt;&lt;p&gt;&lt;/p&gt;&lt;hr size=&quot;1&quot; style=&quot;border-style:solid;&quot;&gt;&lt;p style=&quot;margin:0px;margin-left:4px;&quot;&gt;&lt;font style=&quot;color: rgb(0, 153, 0);&quot;&gt;- width: double&lt;/font&gt;&lt;/p&gt;&lt;p style=&quot;margin:0px;margin-left:4px;&quot;&gt;&lt;font style=&quot;color: rgb(0, 153, 0);&quot;&gt;- height: double&lt;/font&gt;&lt;/p&gt;&lt;hr size=&quot;1&quot; style=&quot;border-style:solid;&quot;&gt;&lt;p style=&quot;margin:0px;margin-left:4px;&quot;&gt;&lt;font style=&quot;color: rgb(0, 153, 0);&quot;&gt;+ getWidth(): double&lt;br&gt;+ getHeight(): double&lt;br&gt;+ setWidth(width: double)&lt;br&gt;+ setHeight(height: double)&lt;/font&gt;&lt;/p&gt;" style="verticalAlign=top;align=left;overflow=fill;html=1;whiteSpace=wrap;strokeColor=#009900;" vertex="1" parent="1">
          <mxGeometry x="-145" y="468.13" width="160" height="143.75" as="geometry" />
        </mxCell>
        <mxCell id="S4wdt5YliR7kEv1zfu42-20" value="Use" style="endArrow=open;endSize=12;dashed=1;html=1;rounded=0;" edge="1" parent="1" source="S4wdt5YliR7kEv1zfu42-7" target="FqsGxT_PJn5Uz5HPR8Sm-5">
          <mxGeometry width="160" relative="1" as="geometry">
            <mxPoint x="-370" y="-190" as="sourcePoint" />
            <mxPoint x="-210" y="-190" as="targetPoint" />
          </mxGeometry>
        </mxCell>
        <mxCell id="S4wdt5YliR7kEv1zfu42-22" value="Extends" style="endArrow=block;endSize=16;endFill=0;html=1;rounded=0;" edge="1" parent="1" source="S4wdt5YliR7kEv1zfu42-6" target="S4wdt5YliR7kEv1zfu42-15">
          <mxGeometry width="160" relative="1" as="geometry">
            <mxPoint x="24" y="350" as="sourcePoint" />
            <mxPoint x="-10" y="280" as="targetPoint" />
          </mxGeometry>
        </mxCell>
        <mxCell id="S4wdt5YliR7kEv1zfu42-24" value="Use" style="endArrow=open;endSize=12;dashed=1;html=1;rounded=0;" edge="1" parent="1" source="S4wdt5YliR7kEv1zfu42-15" target="S4wdt5YliR7kEv1zfu42-19">
          <mxGeometry width="160" relative="1" as="geometry">
            <mxPoint x="-250" as="sourcePoint" />
            <mxPoint x="-215" y="-110" as="targetPoint" />
          </mxGeometry>
        </mxCell>
        <mxCell id="S4wdt5YliR7kEv1zfu42-25" value="" style="endArrow=diamondThin;endFill=1;endSize=24;html=1;rounded=0;" edge="1" parent="1" source="S4wdt5YliR7kEv1zfu42-19" target="S4wdt5YliR7kEv1zfu42-6">
          <mxGeometry width="160" relative="1" as="geometry">
            <mxPoint x="430.0049999999998" y="-20" as="sourcePoint" />
            <mxPoint x="486.93" y="310" as="targetPoint" />
          </mxGeometry>
        </mxCell>
        <mxCell id="S4wdt5YliR7kEv1zfu42-26" value="&lt;p style=&quot;margin:0px;margin-top:4px;text-align:center;&quot;&gt;&lt;/p&gt;&lt;div style=&quot;text-align: center;&quot;&gt;&lt;font style=&quot;color: rgb(153, 51, 255);&quot;&gt;&lt;span style=&quot;background-color: transparent; text-align: left;&quot;&gt;«interface&lt;/span&gt;&lt;span style=&quot;background-color: transparent; text-align: left;&quot;&gt;»&lt;/span&gt;&lt;/font&gt;&lt;/div&gt;&lt;div style=&quot;text-align: center;&quot;&gt;&lt;font color=&quot;#9933ff&quot;&gt;&lt;b&gt;Velocitiable&lt;/b&gt;&lt;/font&gt;&lt;/div&gt;&lt;p&gt;&lt;/p&gt;&lt;hr size=&quot;1&quot; style=&quot;border-style:solid;&quot;&gt;&lt;p style=&quot;margin:0px;margin-left:4px;&quot;&gt;&lt;font style=&quot;color: rgb(153, 51, 255);&quot;&gt;&lt;br&gt;&lt;/font&gt;&lt;/p&gt;&lt;hr size=&quot;1&quot; style=&quot;border-style:solid;&quot;&gt;&lt;p style=&quot;margin:0px;margin-left:4px;&quot;&gt;&lt;span style=&quot;color: rgb(153, 51, 255);&quot;&gt;+ getVelocity(): Vector2&lt;/span&gt;&lt;br style=&quot;color: rgb(153, 51, 255);&quot;&gt;&lt;span style=&quot;color: rgb(153, 51, 255);&quot;&gt;+ setVelocity(velocity: Vector2)&lt;/span&gt;&lt;/p&gt;" style="verticalAlign=top;align=left;overflow=fill;html=1;whiteSpace=wrap;strokeColor=#9933FF;" vertex="1" parent="1">
          <mxGeometry x="-530" y="-90" width="170" height="110" as="geometry" />
        </mxCell>
        <mxCell id="S4wdt5YliR7kEv1zfu42-27" value="Extends" style="endArrow=block;endSize=16;endFill=0;html=1;rounded=0;" edge="1" parent="1" source="93EsHyi-fyHFf_x4cWJ--7" target="S4wdt5YliR7kEv1zfu42-26">
          <mxGeometry width="160" relative="1" as="geometry">
            <mxPoint x="-684" y="200" as="sourcePoint" />
            <mxPoint x="-730" y="130" as="targetPoint" />
          </mxGeometry>
        </mxCell>
        <mxCell id="S4wdt5YliR7kEv1zfu42-28" value="Use" style="endArrow=open;endSize=12;dashed=1;html=1;rounded=0;" edge="1" parent="1" source="S4wdt5YliR7kEv1zfu42-26" target="FqsGxT_PJn5Uz5HPR8Sm-5">
          <mxGeometry width="160" relative="1" as="geometry">
            <mxPoint x="-165" y="20" as="sourcePoint" />
            <mxPoint x="-210" y="34" as="targetPoint" />
          </mxGeometry>
        </mxCell>
        <mxCell id="S4wdt5YliR7kEv1zfu42-30" value="" style="endArrow=diamondThin;endFill=1;endSize=24;html=1;rounded=0;" edge="1" parent="1" source="FqsGxT_PJn5Uz5HPR8Sm-5" target="FqsGxT_PJn5Uz5HPR8Sm-19">
          <mxGeometry width="160" relative="1" as="geometry">
            <mxPoint x="-570" y="70" as="sourcePoint" />
            <mxPoint x="-410" y="70" as="targetPoint" />
          </mxGeometry>
        </mxCell>
        <mxCell id="S4wdt5YliR7kEv1zfu42-31" value="" style="endArrow=diamondThin;endFill=1;endSize=24;html=1;rounded=0;edgeStyle=orthogonalEdgeStyle;curved=1;" edge="1" parent="1" source="FqsGxT_PJn5Uz5HPR8Sm-5" target="S4wdt5YliR7kEv1zfu42-8">
          <mxGeometry width="160" relative="1" as="geometry">
            <mxPoint x="-230" y="30" as="sourcePoint" />
            <mxPoint x="-230" y="535" as="targetPoint" />
            <Array as="points">
              <mxPoint x="-70" y="-267" />
            </Array>
          </mxGeometry>
        </mxCell>
        <mxCell id="S4wdt5YliR7kEv1zfu42-34" value="&lt;p style=&quot;margin:0px;margin-top:4px;text-align:center;&quot;&gt;&lt;/p&gt;&lt;div style=&quot;text-align: center;&quot;&gt;&lt;b&gt;&lt;font style=&quot;color: rgb(0, 153, 0);&quot;&gt;DistructibleBlock&lt;/font&gt;&lt;/b&gt;&lt;/div&gt;&lt;p&gt;&lt;/p&gt;&lt;hr size=&quot;1&quot; style=&quot;border-style:solid;&quot;&gt;&lt;p style=&quot;margin: 0px 0px 0px 4px;&quot;&gt;&lt;font color=&quot;#009900&quot;&gt;# health: int&lt;/font&gt;&lt;/p&gt;&lt;hr style=&quot;border-style: solid;&quot; size=&quot;1&quot;&gt;&lt;p style=&quot;margin: 0px 0px 0px 4px;&quot;&gt;&lt;font style=&quot;color: rgb(0, 153, 0);&quot;&gt;+ getHealth(): int&lt;br&gt;+ setHealth(health: int)&lt;/font&gt;&lt;/p&gt;" style="verticalAlign=top;align=left;overflow=fill;html=1;whiteSpace=wrap;strokeColor=#009900;" vertex="1" parent="1">
          <mxGeometry y="660" width="135" height="100" as="geometry" />
        </mxCell>
        <mxCell id="S4wdt5YliR7kEv1zfu42-35" value="Extends" style="endArrow=block;endSize=16;endFill=0;html=1;rounded=0;" edge="1" parent="1" source="S4wdt5YliR7kEv1zfu42-34" target="S4wdt5YliR7kEv1zfu42-6">
          <mxGeometry width="160" relative="1" as="geometry">
            <mxPoint x="-80" y="450" as="sourcePoint" />
            <mxPoint x="80" y="450" as="targetPoint" />
          </mxGeometry>
        </mxCell>
        <mxCell id="S4wdt5YliR7kEv1zfu42-36" value="&lt;p style=&quot;margin:0px;margin-top:4px;text-align:center;&quot;&gt;&lt;/p&gt;&lt;div style=&quot;text-align: center;&quot;&gt;&lt;b&gt;&lt;font style=&quot;color: rgb(0, 153, 0);&quot;&gt;IndestructibleBlock&lt;/font&gt;&lt;/b&gt;&lt;/div&gt;&lt;p&gt;&lt;/p&gt;&lt;hr size=&quot;1&quot; style=&quot;border-style:solid;&quot;&gt;&lt;p style=&quot;margin: 0px 0px 0px 4px;&quot;&gt;&lt;br&gt;&lt;/p&gt;&lt;hr style=&quot;border-style: solid;&quot; size=&quot;1&quot;&gt;&lt;p style=&quot;margin: 0px 0px 0px 4px;&quot;&gt;&lt;br&gt;&lt;/p&gt;" style="verticalAlign=top;align=left;overflow=fill;html=1;whiteSpace=wrap;strokeColor=#009900;" vertex="1" parent="1">
          <mxGeometry x="155" y="660" width="135" height="85" as="geometry" />
        </mxCell>
        <mxCell id="S4wdt5YliR7kEv1zfu42-37" value="Extends" style="endArrow=block;endSize=16;endFill=0;html=1;rounded=0;" edge="1" parent="1" source="S4wdt5YliR7kEv1zfu42-36" target="S4wdt5YliR7kEv1zfu42-6">
          <mxGeometry width="160" relative="1" as="geometry">
            <mxPoint x="-40" y="510" as="sourcePoint" />
            <mxPoint x="4" y="450" as="targetPoint" />
          </mxGeometry>
        </mxCell>
        <mxCell id="S4wdt5YliR7kEv1zfu42-38" value="&lt;p style=&quot;margin:0px;margin-top:4px;text-align:center;&quot;&gt;&lt;/p&gt;&lt;div style=&quot;text-align: center;&quot;&gt;&lt;b&gt;&lt;font style=&quot;color: rgb(0, 153, 0);&quot;&gt;DecorativeBlock&lt;/font&gt;&lt;/b&gt;&lt;/div&gt;&lt;p&gt;&lt;/p&gt;&lt;hr size=&quot;1&quot; style=&quot;border-style:solid;&quot;&gt;&lt;p style=&quot;margin: 0px 0px 0px 4px;&quot;&gt;&lt;br&gt;&lt;/p&gt;&lt;hr style=&quot;border-style: solid;&quot; size=&quot;1&quot;&gt;&lt;p style=&quot;margin: 0px 0px 0px 4px;&quot;&gt;&lt;br&gt;&lt;/p&gt;" style="verticalAlign=top;align=left;overflow=fill;html=1;whiteSpace=wrap;strokeColor=#009900;" vertex="1" parent="1">
          <mxGeometry x="310" y="660" width="135" height="85" as="geometry" />
        </mxCell>
        <mxCell id="S4wdt5YliR7kEv1zfu42-39" value="Extends" style="endArrow=block;endSize=16;endFill=0;html=1;rounded=0;" edge="1" parent="1" source="S4wdt5YliR7kEv1zfu42-38" target="S4wdt5YliR7kEv1zfu42-6">
          <mxGeometry width="160" relative="1" as="geometry">
            <mxPoint x="41" y="528" as="sourcePoint" />
            <mxPoint x="40" y="460" as="targetPoint" />
          </mxGeometry>
        </mxCell>
        <mxCell id="S4wdt5YliR7kEv1zfu42-40" value="" style="endArrow=diamondThin;endFill=1;endSize=24;html=1;rounded=0;" edge="1" parent="1" source="S4wdt5YliR7kEv1zfu42-19" target="93EsHyi-fyHFf_x4cWJ--1">
          <mxGeometry width="160" relative="1" as="geometry">
            <mxPoint x="90" y="540" as="sourcePoint" />
            <mxPoint x="240" y="540" as="targetPoint" />
          </mxGeometry>
        </mxCell>
        <mxCell id="S4wdt5YliR7kEv1zfu42-42" value="Extends" style="endArrow=block;endSize=16;endFill=0;html=1;rounded=0;" edge="1" parent="1" source="93EsHyi-fyHFf_x4cWJ--1" target="S4wdt5YliR7kEv1zfu42-15">
          <mxGeometry width="160" relative="1" as="geometry">
            <mxPoint x="190" y="523" as="sourcePoint" />
            <mxPoint x="40" y="430" as="targetPoint" />
          </mxGeometry>
        </mxCell>
      </root>
    </mxGraphModel>
  </diagram>
</mxfile>
